PathFileType	4	(X/Y/Z)	C:/Users/opensim2020/Desktop/walking_exp_matlab/subject01_walking11_straight_02.trc	
DataRate	CameraRate	NumFrames	NumMarkers	Units	OrigDataRate	OrigDataStartFrame	OrigNumFrames	
100.00	100.00	7	44	mm	100.00	1941	266	
Frame#	Time	LFHD			RFHD			LBHD			RBHD			C7			T10			CLAV			STRN			RBAK			LSHO			LUPA			LELB			LFRM			LWRA			LWRB			LFIN			RSHO			RUPA			RELB			RFRM			RWRA			RWRB			RFIN			LASI			RASI			LPSI			RPSI			LTHI			LKNE			LTIB			LANK			LHEE			LTOE			RTHI			RKNE			RTIB			RANK			RHEE			RTOE			*39			*40			*41			*42			*43			
		X1	Y1	Z1	X2	Y2	Z2	X3	Y3	Z3	X4	Y4	Z4	X5	Y5	Z5	X6	Y6	Z6	X7	Y7	Z7	X8	Y8	Z8	X9	Y9	Z9	X10	Y10	Z10	X11	Y11	Z11	X12	Y12	Z12	X13	Y13	Z13	X14	Y14	Z14	X15	Y15	Z15	X16	Y16	Z16	X17	Y17	Z17	X18	Y18	Z18	X19	Y19	Z19	X20	Y20	Z20	X21	Y21	Z21	X22	Y22	Z22	X23	Y23	Z23	X24	Y24	Z24	X25	Y25	Z25	X26	Y26	Z26	X27	Y27	Z27	X28	Y28	Z28	X29	Y29	Z29	X30	Y30	Z30	X31	Y31	Z31	X32	Y32	Z32	X33	Y33	Z33	X34	Y34	Z34	X35	Y35	Z35	X36	Y36	Z36	X37	Y37	Z37	X38	Y38	Z38	X39	Y39	Z39	X40	Y40	Z40	X41	Y41	Z41	X42	Y42	Z42	X43	Y43	Z43	X44	Y44	Z44	

1	0.000	-987.07294	943.60077	1677.50854	-1097.74976	912.14905	1685.95557	-1015.55298	1056.15186	1632.85278	-1132.74768	1026.72449	1641.18970	-1049.45605	1089.55322	1441.83069	-1059.17395	1130.89453	1149.62134	-1054.11316	946.09137	1373.18933	-1052.16809	906.52740	1216.76697	-1126.98157	1150.01428	1249.25415	-890.87708	1004.98999	1403.20911	-807.99701	1026.10828	1217.22559	-807.78815	1027.02112	1065.11975	-780.66858	974.22833	964.77435	-795.32391	878.01227	863.73138	-772.17499	931.69946	850.13403	-758.29193	872.25024	791.12872	-1201.75647	1016.39636	1405.65540	-1301.24097	1093.14673	1212.73401	-1305.26892	1102.22144	1088.52502	-1344.77649	1086.11011	971.87915	-1343.51038	1010.40289	850.68335	-1375.73267	1059.36035	855.52979	-1378.71680	1027.74890	773.68176	-961.50726	962.19397	936.34937	-1177.48840	967.49847	944.67114	-1011.90997	1148.81775	952.89252	-1158.41406	1148.87549	955.38879	-925.28387	993.72174	602.51312	-949.74445	1003.98590	468.63861	-953.09821	1061.76697	286.40469	-1020.77173	1094.27893	74.79719	-1075.76221	1138.24780	47.19168	-1007.97858	948.21338	39.38060	-1248.38110	931.17468	625.81769	-1227.46143	886.82330	472.58130	-1233.31604	979.99347	321.80713	-1188.87805	1055.76392	130.05222	-1132.30627	1106.09375	99.66708	-1207.91418	936.77563	57.63079	-1076.36926	927.48804	1719.29114	-3101.98438	1973.09631	1023.51398	-3140.76880	2012.50098	1021.98694						 
2	0.010	-987.50201	936.37714	1677.34119	-1098.04602	904.82489	1685.60107	-1015.84851	1049.07727	1633.02161	-1132.34131	1019.51196	1640.91248	-1049.60645	1082.74194	1441.87671	-1059.20044	1124.47437	1149.68787	-1054.05347	939.42499	1373.06848	-1051.91992	900.09760	1216.42834	-1126.90417	1143.35059	1249.19214	-890.97363	998.18378	1403.40283	-807.67529	1018.78442	1217.52905	-807.11322	1019.60968	1065.52124	-780.12866	965.51740	965.62939	-794.80774	868.19727	865.63983	-771.71741	921.74500	851.50452	-757.58020	861.57819	793.20416	-1201.81311	1009.59558	1405.36462	-1301.01685	1086.66064	1212.41626	-1305.07678	1095.76428	1088.18835	-1344.68701	1079.58801	971.60858	-1343.21582	1003.91302	850.49091	-1375.67236	1052.70471	855.31000	-1378.64990	1020.85455	773.56030	-961.09387	956.56519	935.98816	-1177.16809	960.77759	944.85956	-1012.38422	1142.84485	952.90900	-1158.90417	1142.30029	955.57745	-925.34796	990.28168	602.08936	-949.56281	1001.61084	468.32791	-953.18646	1060.39575	286.38321	-1020.85962	1094.00342	74.84512	-1075.73230	1138.38611	47.36541	-1007.98340	948.05945	39.24570	-1248.22632	923.89606	626.21375	-1226.77271	878.24237	473.54532	-1233.61267	965.03870	319.28397	-1189.89502	1032.27112	123.74202	-1133.60510	1081.40430	91.13416	-1207.85620	909.98615	57.16815	-1076.55835	920.14752	1718.84558	-3102.11792	1972.96570	1023.95471	-3140.61353	2012.55908	1022.18219						 
3	0.020	-987.91772	929.15601	1677.19470	-1098.32947	897.52618	1685.21655	-1016.24872	1041.97192	1633.11096	-1132.83093	1012.30048	1640.84753	-1049.74707	1075.90234	1441.87061	-1059.29260	1118.28662	1149.77625	-1054.26770	932.67035	1372.86914	-1051.63281	893.60950	1216.13391	-1126.86694	1136.68604	1249.05493	-891.09930	991.34271	1403.56665	-807.47559	1011.69696	1217.81433	-806.80182	1011.82288	1065.68689	-779.64349	956.87646	966.39624	-794.43372	858.56018	867.46405	-771.39050	911.84552	852.75793	-757.23090	851.09009	795.16638	-1201.91333	1002.78900	1405.07727	-1300.97778	1080.16602	1212.11194	-1305.18335	1089.47510	1087.96106	-1344.49792	1073.05151	971.17084	-1343.32080	997.02405	850.33185	-1375.80249	1046.14844	855.19141	-1378.70764	1013.86859	773.44135	-960.69946	950.85480	935.54999	-1177.02734	953.87842	944.83411	-1012.93317	1136.88770	952.85986	-1159.41968	1135.72241	955.73438	-925.42340	986.84991	601.66101	-949.72241	999.30762	467.83167	-953.33698	1059.07776	286.36523	-1020.90894	1093.80969	74.89830	-1075.88696	1138.10010	47.61889	-1008.04675	948.19714	39.17408	-1247.77466	917.14545	626.27594	-1225.85095	870.08154	474.18726	-1233.73938	950.55396	317.01172	-1190.42944	1008.15753	117.57734	-1134.93311	1056.38147	83.09832	-1207.81335	883.01587	56.37204	-1077.10278	912.78033	1718.68005	-3102.18872	1972.99182	1023.91968	-3140.64160	2012.58203	1022.01959						 
4	0.030	-988.15961	922.00323	1676.94861	-1098.64063	890.25226	1684.81921	-1016.70758	1034.88916	1633.14355	-1133.27307	1005.09662	1640.63684	-1049.94507	1069.11707	1441.76953	-1059.45032	1111.50342	1149.59534	-1054.18518	925.96216	1372.60010	-1051.52087	887.12335	1215.82886	-1126.92737	1130.01941	1248.92371	-891.22162	984.48151	1403.66162	-807.36481	1004.64178	1218.07520	-806.20496	1004.40338	1065.97473	-779.16345	948.35571	967.13159	-794.10730	849.08209	869.21545	-770.82385	902.14459	853.95502	-756.57440	840.58862	797.23334	-1202.12378	995.92651	1404.68591	-1300.82666	1073.63232	1211.74988	-1305.04614	1082.88098	1087.53381	-1344.50464	1066.43372	970.81372	-1343.29456	990.25189	850.13275	-1375.60010	1039.17700	854.74194	-1378.94922	1006.78564	773.35950	-960.48206	945.20709	934.96674	-1176.65173	947.08795	944.84076	-1013.55536	1130.84155	952.77649	-1159.98706	1128.91687	955.77747	-925.64893	983.27051	601.19507	-949.65143	996.87653	467.42682	-953.46899	1057.74121	286.35059	-1020.94818	1093.52234	74.88069	-1075.94189	1138.01160	47.83455	-1008.01263	948.11554	39.30375	-1247.67798	910.73627	626.20856	-1224.94226	862.24573	474.82239	-1233.73267	936.44861	314.77115	-1191.47278	984.37225	112.26702	-1136.46924	1031.04773	75.63976	-1207.29065	856.40198	56.28291	-1077.56030	905.39880	1718.37292	-3101.91187	1973.13196	1023.49249	-3140.75049	2012.48950	1021.93994						 
5	0.040	-988.60223	914.87866	1676.80054	-1099.16199	883.00671	1684.38635	-1017.16266	1027.85034	1633.21350	-1133.67188	997.91150	1640.43274	-1050.20007	1062.26807	1441.69531	-1059.64502	1104.92920	1149.50110	-1054.27954	919.31055	1372.34448	-1051.48022	880.58624	1215.43884	-1126.99524	1123.31567	1248.75537	-891.47461	977.58795	1403.68091	-807.23511	997.54529	1218.30115	-805.82715	996.91083	1066.14148	-778.77942	939.91315	967.80457	-793.83136	839.69110	870.90710	-770.55817	892.55225	855.10480	-756.38354	830.56287	798.91699	-1202.28210	989.09003	1404.29016	-1300.88831	1067.15369	1211.41064	-1305.23291	1076.35791	1087.21753	-1344.62830	1059.73108	970.50476	-1343.32495	983.31226	849.88379	-1375.55676	1032.47876	854.33240	-1379.10803	999.66663	773.10370	-960.26923	939.35333	934.50055	-1176.72168	940.11346	944.89050	-1014.19409	1124.74768	952.68372	-1160.53674	1121.94690	955.77789	-925.80872	979.74121	600.79144	-949.64972	994.49011	467.02942	-953.69049	1056.27527	286.29776	-1021.01007	1093.28052	75.01607	-1076.03857	1137.91785	48.10219	-1008.16455	947.75922	39.12995	-1247.18701	905.41681	625.46790	-1224.01221	854.74036	475.27502	-1233.72839	922.53583	312.63876	-1192.45129	960.51416	107.52384	-1137.96106	1006.42682	69.19218	-1206.80420	829.57239	57.41165	-1077.54578	898.37793	1717.62451	-3101.97290	1973.18225	1023.34943	-3140.76001	2012.56262	1022.16907						 
6	0.050	-989.19537	907.68628	1676.51880	-1099.65637	875.73615	1683.98743	-1017.72681	1020.65387	1633.03040	-1135.08960	990.72180	1640.45349	-1050.45410	1055.40564	1441.56616	-1059.97375	1098.71924	1149.48413	-1054.60571	912.53082	1371.95813	-1051.39136	874.01007	1215.08533	-1127.17822	1116.59729	1248.55139	-891.72516	970.66394	1403.66748	-807.09595	990.46399	1218.47974	-805.47327	989.36145	1066.28137	-778.43030	931.54321	968.41949	-793.55908	830.42365	872.53735	-770.25244	883.12738	856.13196	-755.97614	820.43378	800.72205	-1202.57715	982.34900	1403.91968	-1300.76489	1060.51477	1210.92139	-1305.32800	1069.72107	1086.80432	-1344.75330	1052.96936	970.08502	-1343.50391	976.27673	849.66583	-1375.69080	1025.45825	853.98529	-1379.40063	992.57672	772.98169	-959.84680	933.55878	934.01184	-1176.47058	933.11005	944.79980	-1014.95398	1118.63477	952.50049	-1161.24060	1115.09888	955.83667	-926.14288	976.11340	600.39545	-949.87799	991.98962	466.61472	-953.88531	1054.63269	286.28348	-1021.06512	1093.00317	75.12717	-1076.11890	1137.82202	48.33328	-1008.36298	947.61761	39.02788	-1247.19006	898.92767	625.73633	-1223.08887	847.55493	475.63333	-1234.10327	908.87030	310.83688	-1193.20264	936.81909	103.57734	-1139.54211	981.28564	62.96288	-1206.26672	803.48523	58.66957	-1078.54810	890.80359	1717.57117	-3101.95435	1973.08118	1023.52618	-3140.65894	2012.43738	1021.96228						 
7	0.060	-989.62781	900.54218	1676.20740	-1100.16479	868.44354	1683.49500	-1018.32074	1013.63586	1633.01978	-1135.66492	983.50494	1640.15955	-1050.81836	1048.55005	1441.39124	-1060.31335	1092.13220	1149.33533	-1054.64050	905.87115	1371.56458	-1051.46057	867.38324	1214.69458	-1127.39880	1109.91650	1248.33838	-892.11536	963.79742	1403.61877	-807.07666	983.37744	1218.62793	-804.96259	981.95941	1066.40686	-778.14056	923.26453	968.98779	-793.24457	821.33215	874.03101	-770.23712	873.90820	857.09930	-755.66425	810.81134	802.34015	-1202.90601	975.53467	1403.47986	-1300.84949	1053.85706	1210.47131	-1305.30981	1062.93115	1086.26257	-1344.86169	1046.10388	969.60345	-1343.45984	969.34583	849.31561	-1375.77478	1018.45697	853.51617	-1379.70349	985.39960	772.74988	-959.75830	927.71277	933.48907	-1176.40894	925.96710	944.79529	-1015.72394	1112.45313	952.29913	-1161.93628	1108.05481	955.86407	-926.49939	972.41425	599.99103	-950.02490	989.34680	466.22900	-954.08752	1052.96692	286.31641	-1021.15698	1092.70874	75.31212	-1076.20581	1137.72522	48.69968	-1008.45618	947.50903	39.01343	-1246.95093	893.22406	625.12866	-1222.01282	840.58374	475.69275	-1234.07678	894.75146	308.71899	-1194.27771	913.30902	99.96203	-1140.99011	956.72943	57.72044	-1205.58179	777.88074	60.97084	-1078.85864	883.66309	1716.98865	-3101.98486	1973.11438	1023.37903	-3140.64014	2012.46692	1021.99261						 
